# xmcd
#
# Track frame offsets:
#	150
#	19110
#	34862
#	63550
#
# Disc length: 1163 seconds
#
# Revision: 1
# Processed by: cddbd v1.5PL3 Copyright (c) Steve Scherf et al.
# Submitted via: CDex 1.50Beta5
#
DISCID=2e048904
DTITLE=Grapevine - Discord
DYEAR=1900
DGENRE=Japanese Rock
TTITLE0=Discord
TTITLE1=アイボリー
TTITLE2=きみが嫌い
TTITLE3=データ トラック
EXTD=
EXTT0=
EXTT1=
EXTT2=
EXTT3=
PLAYORDER=
